<?xml version="1.0" encoding="UTF-8"?>
<svg xmlns="http://www.w3.org/2000/svg" xmlns:xlink="http://www.w3.org/1999/xlink" width="24px" height="24px" viewBox="0 0 24 24" version="1.1">
<g id="surface1">
<path style=" stroke:none;fill-rule:nonzero;fill:rgb(0%,0%,0%);fill-opacity:1;" d="M 13.5 17.25 L 12.75 17.25 L 12.75 10.546875 C 12.75 10.539062 12.746094 10.53125 12.746094 10.523438 C 12.746094 10.515625 12.75 10.507812 12.75 10.5 C 12.75 10.085938 12.414062 9.75 12 9.75 L 10.5 9.75 C 10.085938 9.75 9.75 10.085938 9.75 10.5 C 9.75 10.914062 10.085938 11.25 10.5 11.25 L 11.25 11.25 L 11.25 17.25 L 10.5 17.25 C 10.085938 17.25 9.75 17.585938 9.75 18 C 9.75 18.414062 10.085938 18.75 10.5 18.75 L 13.5 18.75 C 13.914062 18.75 14.25 18.414062 14.25 18 C 14.25 17.585938 13.914062 17.25 13.5 17.25 Z M 12 8.25 C 12.828125 8.25 13.5 7.578125 13.5 6.75 C 13.5 5.921875 12.828125 5.25 12 5.25 C 11.171875 5.25 10.5 5.921875 10.5 6.75 C 10.5 7.578125 11.171875 8.25 12 8.25 Z M 12 0 C 5.371094 0 0 5.371094 0 12 C 0 18.628906 5.371094 24 12 24 C 18.628906 24 24 18.628906 24 12 C 24 5.371094 18.628906 0 12 0 Z M 12 22.523438 C 6.210938 22.523438 1.5 17.789062 1.5 12 C 1.5 6.210938 6.210938 1.5 12 1.5 C 17.789062 1.5 22.5 6.210938 22.5 12 C 22.5 17.789062 17.789062 22.523438 12 22.523438 Z M 12 22.523438 "/>
</g>
</svg>
