<?xml version="1.0" encoding="UTF-8"?>
<svg xmlns="http://www.w3.org/2000/svg" xmlns:xlink="http://www.w3.org/1999/xlink" width="24px" height="24px" viewBox="0 0 24 24" version="1.1">
<g id="surface1">
<path style="fill:none;stroke-width:2;stroke-linecap:butt;stroke-linejoin:round;stroke:rgb(0%,0%,0%);stroke-opacity:1;stroke-miterlimit:10;" d="M 31 16 C 31 24.286458 24.286458 31 16 31 C 7.713542 31 1 24.286458 1 16 C 1 7.713542 7.713542 1 16 1 C 24.286458 1 31 7.713542 31 16 Z M 31 16 " transform="matrix(0.75,0,0,0.75,0,0)"/>
<path style="fill:none;stroke-width:2;stroke-linecap:butt;stroke-linejoin:round;stroke:rgb(0%,0%,0%);stroke-opacity:1;stroke-miterlimit:10;" d="M 26 27 C 26 21.479167 21.520833 17 16 17 C 10.479167 17 6 21.479167 6 27 " transform="matrix(0.75,0,0,0.75,0,0)"/>
<path style="fill:none;stroke-width:2;stroke-linecap:butt;stroke-linejoin:round;stroke:rgb(0%,0%,0%);stroke-opacity:1;stroke-miterlimit:10;" d="M 22 11 C 22 14.3125 19.3125 17 16 17 C 12.6875 17 10 14.3125 10 11 C 10 7.6875 12.6875 5 16 5 C 19.3125 5 22 7.6875 22 11 Z M 22 11 " transform="matrix(0.75,0,0,0.75,0,0)"/>
</g>
</svg>
