<?xml version="1.0" encoding="UTF-8"?>
<svg xmlns="http://www.w3.org/2000/svg" xmlns:xlink="http://www.w3.org/1999/xlink" width="24px" height="24px" viewBox="0 0 24 24" version="1.1">
<g id="surface1">
<path style=" stroke:none;fill-rule:nonzero;fill:rgb(0%,0%,0%);fill-opacity:1;" d="M 8.183594 10.324219 L 2.386719 10.324219 C 1.164062 10.324219 0.171875 9.332031 0.171875 8.109375 L 0.171875 2.386719 C 0.171875 1.164062 1.164062 0.171875 2.386719 0.171875 L 8.183594 0.171875 C 9.40625 0.171875 10.394531 1.164062 10.394531 2.386719 L 10.394531 8.109375 C 10.394531 9.332031 9.40625 10.320312 8.183594 10.324219 Z M 2.386719 1.886719 C 2.109375 1.886719 1.886719 2.109375 1.886719 2.386719 L 1.886719 8.109375 C 1.886719 8.386719 2.109375 8.609375 2.386719 8.609375 L 8.183594 8.609375 C 8.457031 8.609375 8.679688 8.386719 8.683594 8.109375 L 8.683594 2.386719 C 8.679688 2.109375 8.457031 1.886719 8.183594 1.886719 Z M 2.386719 1.886719 "/>
<path style=" stroke:none;fill-rule:nonzero;fill:rgb(0%,0%,0%);fill-opacity:1;" d="M 8.210938 23.828125 L 2.414062 23.828125 C 1.191406 23.828125 0.199219 22.835938 0.199219 21.613281 L 0.199219 15.890625 C 0.199219 14.667969 1.191406 13.675781 2.414062 13.675781 L 8.210938 13.675781 C 9.433594 13.679688 10.421875 14.667969 10.421875 15.890625 L 10.421875 21.613281 C 10.421875 22.835938 9.433594 23.828125 8.210938 23.828125 Z M 2.414062 15.390625 C 2.136719 15.390625 1.914062 15.613281 1.914062 15.890625 L 1.914062 21.613281 C 1.914062 21.890625 2.136719 22.113281 2.414062 22.113281 L 8.210938 22.113281 C 8.488281 22.113281 8.710938 21.890625 8.710938 21.613281 L 8.710938 15.890625 C 8.710938 15.613281 8.484375 15.390625 8.210938 15.390625 Z M 2.414062 15.390625 "/>
<path style=" stroke:none;fill-rule:nonzero;fill:rgb(0%,0%,0%);fill-opacity:1;" d="M 21.613281 23.828125 L 15.816406 23.828125 C 14.597656 23.828125 13.605469 22.835938 13.605469 21.613281 L 13.605469 15.890625 C 13.605469 14.667969 14.597656 13.675781 15.816406 13.675781 L 21.613281 13.675781 C 22.835938 13.679688 23.828125 14.667969 23.828125 15.890625 L 23.828125 21.613281 C 23.828125 22.835938 22.835938 23.828125 21.613281 23.828125 Z M 15.816406 15.394531 C 15.542969 15.394531 15.320312 15.617188 15.316406 15.894531 L 15.316406 21.617188 C 15.320312 21.894531 15.542969 22.117188 15.816406 22.117188 L 21.613281 22.117188 C 21.890625 22.117188 22.113281 21.894531 22.113281 21.617188 L 22.113281 15.890625 C 22.113281 15.613281 21.890625 15.390625 21.613281 15.390625 Z M 15.816406 15.394531 "/>
<path style=" stroke:none;fill-rule:nonzero;fill:rgb(0%,0%,0%);fill-opacity:1;" d="M 18.71875 10.324219 C 15.921875 10.300781 13.667969 8.023438 13.683594 5.222656 C 13.699219 2.425781 15.972656 0.167969 18.769531 0.175781 C 21.566406 0.183594 23.832031 2.453125 23.832031 5.25 C 23.816406 8.058594 21.53125 10.332031 18.71875 10.324219 Z M 18.71875 1.890625 C 16.871094 1.910156 15.382812 3.421875 15.398438 5.273438 C 15.410156 7.125 16.917969 8.617188 18.769531 8.609375 C 20.621094 8.601562 22.117188 7.101562 22.117188 5.25 C 22.105469 3.382812 20.585938 1.878906 18.71875 1.886719 Z M 18.71875 1.890625 "/>
</g>
</svg>
