<?xml version="1.0" encoding="UTF-8"?>
<svg xmlns="http://www.w3.org/2000/svg" xmlns:xlink="http://www.w3.org/1999/xlink" width="24px" height="24px" viewBox="0 0 24 24" version="1.1">
<g id="surface1">
<path style=" stroke:none;fill-rule:nonzero;fill:rgb(0%,0%,0%);fill-opacity:1;" d="M 22.40625 4.148438 L 1.59375 4.148438 C 0.714844 4.148438 0 4.859375 0 5.738281 L 0 18.261719 C 0 19.136719 0.714844 19.851562 1.59375 19.851562 L 22.40625 19.851562 C 23.285156 19.851562 24 19.136719 24 18.261719 L 24 5.738281 C 24 4.859375 23.285156 4.148438 22.40625 4.148438 Z M 23.039062 18.261719 C 23.039062 18.609375 22.757812 18.894531 22.40625 18.894531 L 1.59375 18.894531 C 1.242188 18.894531 0.960938 18.609375 0.960938 18.261719 L 0.960938 5.738281 C 0.960938 5.390625 1.242188 5.105469 1.59375 5.105469 L 22.40625 5.105469 C 22.757812 5.105469 23.039062 5.390625 23.039062 5.738281 Z M 23.039062 18.261719 "/>
<path style=" stroke:none;fill-rule:nonzero;fill:rgb(0%,0%,0%);fill-opacity:1;" d="M 20.160156 9.097656 C 19.546875 9.097656 19.046875 8.601562 19.046875 7.988281 L 19.046875 7.507812 L 4.953125 7.507812 L 4.953125 7.988281 C 4.953125 8.601562 4.453125 9.097656 3.839844 9.097656 L 3.359375 9.097656 L 3.359375 14.898438 L 3.839844 14.898438 C 4.453125 14.898438 4.953125 15.398438 4.953125 16.011719 L 4.953125 16.492188 L 19.046875 16.492188 L 19.046875 16.011719 C 19.046875 15.398438 19.546875 14.898438 20.160156 14.898438 L 20.640625 14.898438 L 20.640625 9.097656 Z M 19.679688 13.996094 C 18.921875 14.175781 18.324219 14.773438 18.144531 15.53125 L 5.855469 15.53125 C 5.675781 14.773438 5.078125 14.175781 4.320312 13.996094 L 4.320312 10.003906 C 5.078125 9.824219 5.675781 9.226562 5.855469 8.46875 L 18.144531 8.46875 C 18.324219 9.226562 18.921875 9.824219 19.679688 10.003906 Z M 19.679688 13.996094 "/>
<path style=" stroke:none;fill-rule:nonzero;fill:rgb(0%,0%,0%);fill-opacity:1;" d="M 12 9.960938 C 10.875 9.960938 9.960938 10.875 9.960938 12 C 9.960938 13.125 10.875 14.039062 12 14.039062 C 13.125 14.039062 14.039062 13.125 14.039062 12 C 14.039062 10.875 13.125 9.960938 12 9.960938 Z M 12 13.078125 C 11.40625 13.078125 10.921875 12.59375 10.921875 12 C 10.921875 11.40625 11.40625 10.921875 12 10.921875 C 12.59375 10.921875 13.078125 11.40625 13.078125 12 C 13.078125 12.59375 12.59375 13.078125 12 13.078125 Z M 12 13.078125 "/>
</g>
</svg>
