<?xml version="1.0" encoding="UTF-8"?>
<svg xmlns="http://www.w3.org/2000/svg" xmlns:xlink="http://www.w3.org/1999/xlink" width="24px" height="24px" viewBox="0 0 24 24" version="1.1">
<g id="surface1">
<path style=" stroke:none;fill-rule:nonzero;fill:rgb(0%,0%,0%);fill-opacity:1;" d="M 21.75 3 L 2.25 3 C 1.007812 3 0 4.007812 0 5.25 L 0 18.75 C 0 19.992188 1.007812 21 2.25 21 L 21.75 21 C 22.992188 21 24 19.992188 24 18.75 L 24 5.25 C 24 4.007812 22.992188 3 21.75 3 Z M 23.25 18.417969 L 16.15625 11.320312 L 23.25 6.800781 Z M 2.25 3.75 L 21.75 3.75 C 22.578125 3.75 23.25 4.421875 23.25 5.25 L 23.25 5.914062 L 12.925781 12.492188 C 12.367188 12.847656 11.652344 12.835938 11.105469 12.464844 L 0.75 5.425781 L 0.75 5.25 C 0.75 4.421875 1.421875 3.75 2.25 3.75 Z M 0.75 6.332031 L 7.941406 11.222656 L 0.75 18.417969 Z M 21.75 20.25 L 2.25 20.25 C 1.632812 20.25 1.101562 19.875 0.871094 19.339844 L 8.566406 11.644531 L 10.6875 13.085938 C 11.09375 13.363281 11.5625 13.5 12.035156 13.5 C 12.484375 13.5 12.933594 13.375 13.328125 13.125 L 15.519531 11.726562 L 23.128906 19.339844 C 22.898438 19.875 22.367188 20.25 21.75 20.25 Z M 21.75 20.25 "/>
</g>
</svg>
