<?xml version="1.0" encoding="UTF-8"?>
<svg xmlns="http://www.w3.org/2000/svg" xmlns:xlink="http://www.w3.org/1999/xlink" width="24px" height="24px" viewBox="0 0 24 24" version="1.1">
<g id="surface1">
<path style=" stroke:none;fill-rule:nonzero;fill:rgb(0%,0%,0%);fill-opacity:1;" d="M 12 0 C 5.382812 0 0 5.382812 0 12 C 0 18.617188 5.382812 24 12 24 C 18.617188 24 24 18.617188 24 12 C 24 5.382812 18.617188 0 12 0 Z M 12 22.628906 C 6.140625 22.628906 1.371094 17.859375 1.371094 12 C 1.371094 6.140625 6.140625 1.371094 12 1.371094 C 17.859375 1.371094 22.628906 6.140625 22.628906 12 C 22.628906 17.859375 17.859375 22.628906 12 22.628906 Z M 12 22.628906 "/>
<path style=" stroke:none;fill-rule:nonzero;fill:rgb(0%,0%,0%);fill-opacity:1;" d="M 17.210938 11.3125 L 12.515625 11.3125 C 12.136719 11.3125 11.828125 11.621094 11.828125 12 C 11.828125 12.378906 12.136719 12.6875 12.515625 12.6875 L 16.472656 12.6875 C 16.140625 14.855469 14.261719 16.527344 12 16.527344 C 9.503906 16.527344 7.472656 14.496094 7.472656 12 C 7.472656 9.503906 9.503906 7.472656 12 7.472656 C 13.140625 7.472656 14.230469 7.902344 15.070312 8.675781 C 15.347656 8.933594 15.78125 8.914062 16.039062 8.636719 C 16.296875 8.359375 16.28125 7.921875 16 7.667969 C 14.910156 6.65625 13.488281 6.101562 12 6.101562 C 8.746094 6.101562 6.101562 8.746094 6.101562 12 C 6.101562 15.253906 8.746094 17.898438 12 17.898438 C 15.253906 17.898438 17.898438 15.253906 17.898438 12 C 17.898438 11.621094 17.589844 11.3125 17.210938 11.3125 Z M 17.210938 11.3125 "/>
</g>
</svg>
