<?xml version="1.0" encoding="UTF-8"?>
<svg xmlns="http://www.w3.org/2000/svg" xmlns:xlink="http://www.w3.org/1999/xlink" width="24px" height="24px" viewBox="0 0 24 24" version="1.1">
<g id="surface1">
<path style=" stroke:none;fill-rule:nonzero;fill:rgb(0%,0%,0%);fill-opacity:1;" d="M 3.199219 20 L 3.199219 20.800781 L 4.800781 20.800781 L 4.800781 20 Z M 11.199219 20 L 11.199219 20.800781 L 12.800781 20.800781 L 12.800781 20 Z M 4.800781 20 L 4.800781 19.199219 L 3.199219 19.199219 L 3.199219 20 Z M 11.199219 19.199219 L 11.199219 20 L 12.800781 20 L 12.800781 19.199219 Z M 8 16 C 9.765625 16 11.199219 17.433594 11.199219 19.199219 L 12.800781 19.199219 C 12.800781 16.546875 10.652344 14.398438 8 14.398438 Z M 4.800781 19.199219 C 4.800781 17.433594 6.234375 16 8 16 L 8 14.398438 C 5.347656 14.398438 3.199219 16.546875 3.199219 19.199219 Z M 8 6.398438 C 6.234375 6.398438 4.800781 7.832031 4.800781 9.601562 L 6.398438 9.601562 C 6.398438 8.714844 7.117188 8 8 8 Z M 11.199219 9.601562 C 11.199219 7.832031 9.765625 6.398438 8 6.398438 L 8 8 C 8.882812 8 9.601562 8.714844 9.601562 9.601562 Z M 8 12.800781 C 9.765625 12.800781 11.199219 11.367188 11.199219 9.601562 L 9.601562 9.601562 C 9.601562 10.484375 8.882812 11.199219 8 11.199219 Z M 8 11.199219 C 7.117188 11.199219 6.398438 10.484375 6.398438 9.601562 L 4.800781 9.601562 C 4.800781 11.367188 6.234375 12.800781 8 12.800781 Z M 2.398438 4.800781 L 21.601562 4.800781 L 21.601562 3.199219 L 2.398438 3.199219 Z M 22.398438 5.601562 L 22.398438 18.398438 L 24 18.398438 L 24 5.601562 Z M 21.601562 19.199219 L 2.398438 19.199219 L 2.398438 20.800781 L 21.601562 20.800781 Z M 1.601562 18.398438 L 1.601562 5.601562 L 0 5.601562 L 0 18.398438 Z M 2.398438 19.199219 C 1.957031 19.199219 1.601562 18.839844 1.601562 18.398438 L 0 18.398438 C 0 19.726562 1.074219 20.800781 2.398438 20.800781 Z M 22.398438 18.398438 C 22.398438 18.839844 22.042969 19.199219 21.601562 19.199219 L 21.601562 20.800781 C 22.925781 20.800781 24 19.726562 24 18.398438 Z M 21.601562 4.800781 C 22.042969 4.800781 22.398438 5.15625 22.398438 5.601562 L 24 5.601562 C 24 4.273438 22.925781 3.199219 21.601562 3.199219 Z M 2.398438 3.199219 C 1.074219 3.199219 0 4.273438 0 5.601562 L 1.601562 5.601562 C 1.601562 5.15625 1.957031 4.800781 2.398438 4.800781 Z M 14.398438 9.601562 L 19.199219 9.601562 L 19.199219 8 L 14.398438 8 Z M 14.398438 14.398438 L 19.199219 14.398438 L 19.199219 12.800781 L 14.398438 12.800781 Z M 14.398438 14.398438 "/>
</g>
</svg>
