<?xml version="1.0" encoding="UTF-8"?>
<svg xmlns="http://www.w3.org/2000/svg" xmlns:xlink="http://www.w3.org/1999/xlink" width="15024px" height="24px" viewBox="0 0 24 24" version="1.1">
<g id="surface1">
<path style=" stroke:none;fill-rule:nonzero;fill:rgb(0%,0%,0%);fill-opacity:1;" d="M 23.601562 6.398438 L 0.398438 6.398438 C 0.179688 6.398438 0 6.578125 0 6.800781 L 0 17.199219 C 0 17.421875 0.179688 17.601562 0.398438 17.601562 L 23.601562 17.601562 C 23.820312 17.601562 24 17.421875 24 17.199219 L 24 6.800781 C 24 6.578125 23.820312 6.398438 23.601562 6.398438 Z M 23.199219 16.800781 L 0.800781 16.800781 L 0.800781 7.199219 L 23.199219 7.199219 Z M 23.199219 16.800781 "/>
<path style=" stroke:none;fill-rule:nonzero;fill:rgb(0%,0%,0%);fill-opacity:1;" d="M 7.507812 10.800781 L 5.675781 10.800781 L 6.972656 9.53125 C 7.128906 9.375 7.128906 9.136719 6.972656 8.980469 C 6.816406 8.824219 6.535156 8.832031 6.382812 8.988281 L 5.199219 10.152344 L 5.199219 8.398438 C 5.199219 8.179688 5.019531 8 4.800781 8 C 4.578125 8 4.398438 8.179688 4.398438 8.398438 L 4.398438 10.351562 L 3.128906 9.054688 C 2.972656 8.898438 2.730469 8.898438 2.574219 9.054688 C 2.417969 9.210938 2.425781 9.433594 2.582031 9.589844 L 3.824219 10.800781 L 1.910156 10.800781 C 1.6875 10.800781 1.507812 10.980469 1.507812 11.199219 C 1.507812 11.421875 1.6875 11.601562 1.910156 11.601562 L 3.742188 11.601562 L 2.445312 12.925781 C 2.289062 13.082031 2.289062 13.351562 2.445312 13.507812 C 2.523438 13.585938 2.625 13.632812 2.730469 13.632812 C 2.832031 13.632812 2.910156 13.597656 2.988281 13.519531 L 4.398438 12.082031 L 4.398438 14 C 4.398438 14.222656 4.578125 14.398438 4.800781 14.398438 C 5.019531 14.398438 5.199219 14.222656 5.199219 14 L 5.199219 12.28125 L 6.523438 13.578125 C 6.601562 13.65625 6.714844 13.695312 6.816406 13.695312 C 6.921875 13.695312 7.027344 13.65625 7.105469 13.578125 C 7.261719 13.421875 7.265625 13.140625 7.109375 12.984375 L 5.757812 11.601562 L 7.507812 11.601562 C 7.730469 11.601562 7.910156 11.421875 7.910156 11.199219 C 7.910156 10.980469 7.730469 10.800781 7.507812 10.800781 Z M 7.507812 10.800781 "/>
<path style=" stroke:none;fill-rule:nonzero;fill:rgb(0%,0%,0%);fill-opacity:1;" d="M 6.851562 15.199219 L 2.851562 15.199219 C 2.628906 15.199219 2.449219 15.378906 2.449219 15.601562 C 2.449219 15.820312 2.628906 16 2.851562 16 L 6.851562 16 C 7.070312 16 7.25 15.820312 7.25 15.601562 C 7.25 15.378906 7.070312 15.199219 6.851562 15.199219 Z M 6.851562 15.199219 "/>
<path style=" stroke:none;fill-rule:nonzero;fill:rgb(0%,0%,0%);fill-opacity:1;" d="M 14.707031 10.800781 L 12.875 10.800781 L 14.171875 9.53125 C 14.328125 9.375 14.328125 9.136719 14.171875 8.980469 C 14.015625 8.824219 13.738281 8.832031 13.582031 8.988281 L 12.398438 10.152344 L 12.398438 8.398438 C 12.398438 8.179688 12.222656 8 12 8 C 11.777344 8 11.601562 8.179688 11.601562 8.398438 L 11.601562 10.351562 L 10.328125 9.054688 C 10.171875 8.898438 9.929688 8.898438 9.773438 9.054688 C 9.617188 9.210938 9.625 9.433594 9.78125 9.589844 L 11.027344 10.800781 L 9.109375 10.800781 C 8.886719 10.800781 8.707031 10.980469 8.707031 11.199219 C 8.707031 11.421875 8.886719 11.601562 9.109375 11.601562 L 10.941406 11.601562 L 9.644531 12.925781 C 9.488281 13.082031 9.488281 13.351562 9.644531 13.507812 C 9.722656 13.585938 9.828125 13.632812 9.929688 13.632812 C 10.03125 13.632812 10.109375 13.597656 10.1875 13.519531 L 11.601562 12.082031 L 11.601562 14 C 11.601562 14.222656 11.777344 14.398438 12 14.398438 C 12.222656 14.398438 12.398438 14.222656 12.398438 14 L 12.398438 12.28125 L 13.722656 13.578125 C 13.800781 13.65625 13.914062 13.695312 14.019531 13.695312 C 14.121094 13.695312 14.230469 13.65625 14.308594 13.578125 C 14.464844 13.421875 14.464844 13.140625 14.308594 12.984375 L 12.957031 11.601562 L 14.707031 11.601562 C 14.929688 11.601562 15.109375 11.421875 15.109375 11.199219 C 15.109375 10.980469 14.929688 10.800781 14.707031 10.800781 Z M 14.707031 10.800781 "/>
<path style=" stroke:none;fill-rule:nonzero;fill:rgb(0%,0%,0%);fill-opacity:1;" d="M 14.050781 15.199219 L 10.050781 15.199219 C 9.828125 15.199219 9.648438 15.378906 9.648438 15.601562 C 9.648438 15.820312 9.828125 16 10.050781 16 L 14.050781 16 C 14.269531 16 14.449219 15.820312 14.449219 15.601562 C 14.449219 15.378906 14.269531 15.199219 14.050781 15.199219 Z M 14.050781 15.199219 "/>
<path style=" stroke:none;fill-rule:nonzero;fill:rgb(0%,0%,0%);fill-opacity:1;" d="M 21.910156 10.800781 L 20.074219 10.800781 L 21.371094 9.53125 C 21.527344 9.375 21.527344 9.136719 21.371094 8.980469 C 21.214844 8.824219 20.9375 8.832031 20.78125 8.988281 L 19.601562 10.152344 L 19.601562 8.398438 C 19.601562 8.179688 19.421875 8 19.199219 8 C 18.980469 8 18.800781 8.179688 18.800781 8.398438 L 18.800781 10.351562 L 17.527344 9.054688 C 17.371094 8.898438 17.132812 8.898438 16.976562 9.054688 C 16.820312 9.210938 16.824219 9.433594 16.980469 9.589844 L 18.226562 10.800781 L 16.308594 10.800781 C 16.085938 10.800781 15.910156 10.980469 15.910156 11.199219 C 15.910156 11.421875 16.085938 11.601562 16.308594 11.601562 L 18.144531 11.601562 L 16.847656 12.925781 C 16.691406 13.082031 16.691406 13.351562 16.847656 13.507812 C 16.925781 13.585938 17.027344 13.632812 17.128906 13.632812 C 17.230469 13.632812 17.308594 13.597656 17.386719 13.519531 L 18.800781 12.082031 L 18.800781 14 C 18.800781 14.222656 18.980469 14.398438 19.199219 14.398438 C 19.421875 14.398438 19.601562 14.222656 19.601562 14 L 19.601562 12.28125 L 20.921875 13.578125 C 21 13.65625 21.113281 13.695312 21.21875 13.695312 C 21.320312 13.695312 21.429688 13.65625 21.507812 13.578125 C 21.664062 13.421875 21.667969 13.140625 21.511719 12.984375 L 20.15625 11.601562 L 21.910156 11.601562 C 22.128906 11.601562 22.308594 11.421875 22.308594 11.199219 C 22.308594 10.980469 22.128906 10.800781 21.910156 10.800781 Z M 21.910156 10.800781 "/>
<path style=" stroke:none;fill-rule:nonzero;fill:rgb(0%,0%,0%);fill-opacity:1;" d="M 21.25 15.199219 L 17.25 15.199219 C 17.027344 15.199219 16.851562 15.378906 16.851562 15.601562 C 16.851562 15.820312 17.027344 16 17.25 16 L 21.25 16 C 21.472656 16 21.648438 15.820312 21.648438 15.601562 C 21.648438 15.378906 21.472656 15.199219 21.25 15.199219 Z M 21.25 15.199219 "/>
</g>
</svg>
