<?xml version="1.0" encoding="UTF-8"?>
<svg xmlns="http://www.w3.org/2000/svg" xmlns:xlink="http://www.w3.org/1999/xlink" width="20px" height="20px" viewBox="0 0 20 20" version="1.1">
<g id="surface1">
<path style=" stroke:none;fill-rule:nonzero;fill:rgb(20%,20%,20%);fill-opacity:1;" d="M 18.996094 7.925781 L 17.078125 7.542969 C 16.984375 7.265625 16.871094 6.996094 16.742188 6.734375 L 17.828125 5.109375 C 18.160156 4.613281 18.09375 3.953125 17.671875 3.53125 L 16.46875 2.328125 C 16.226562 2.085938 15.910156 1.960938 15.585938 1.960938 C 15.34375 1.960938 15.105469 2.03125 14.894531 2.171875 L 13.265625 3.257812 C 13.003906 3.128906 12.734375 3.019531 12.457031 2.921875 L 12.074219 1.007812 C 11.957031 0.421875 11.445312 0 10.847656 0 L 9.148438 0 C 8.554688 0 8.039062 0.421875 7.921875 1.007812 L 7.539062 2.921875 C 7.261719 3.019531 6.996094 3.132812 6.734375 3.257812 L 5.109375 2.171875 C 4.894531 2.03125 4.65625 1.960938 4.414062 1.960938 C 4.089844 1.960938 3.773438 2.085938 3.53125 2.328125 L 2.328125 3.53125 C 1.90625 3.953125 1.839844 4.613281 2.171875 5.109375 L 3.257812 6.734375 C 3.128906 6.996094 3.015625 7.265625 2.921875 7.542969 L 1.003906 7.925781 C 0.421875 8.042969 0 8.554688 0 9.152344 L 0 10.851562 C 0 11.445312 0.421875 11.960938 1.003906 12.078125 L 2.921875 12.460938 C 3.015625 12.738281 3.128906 13.007812 3.253906 13.265625 L 2.171875 14.894531 C 1.839844 15.390625 1.90625 16.050781 2.328125 16.46875 L 3.53125 17.671875 C 3.773438 17.914062 4.09375 18.039062 4.414062 18.039062 C 4.65625 18.039062 4.898438 17.96875 5.109375 17.828125 L 6.734375 16.746094 C 6.996094 16.871094 7.265625 16.984375 7.542969 17.078125 L 7.925781 18.996094 C 8.042969 19.578125 8.554688 20 9.148438 20 L 10.851562 20 C 11.445312 20 11.960938 19.578125 12.074219 18.996094 L 12.460938 17.078125 C 12.738281 16.984375 13.003906 16.871094 13.265625 16.746094 L 14.894531 17.828125 C 15.105469 17.96875 15.347656 18.039062 15.585938 18.039062 C 15.910156 18.039062 16.226562 17.914062 16.46875 17.671875 L 17.671875 16.46875 C 18.09375 16.050781 18.160156 15.390625 17.828125 14.894531 L 16.742188 13.265625 C 16.871094 13.003906 16.984375 12.734375 17.078125 12.460938 L 18.996094 12.078125 C 19.578125 11.960938 20 11.445312 20 10.851562 L 20 9.152344 C 20 8.554688 19.578125 8.042969 18.996094 7.925781 Z M 16.832031 11.234375 C 16.398438 11.320312 16.042969 11.632812 15.898438 12.050781 C 15.816406 12.28125 15.722656 12.503906 15.621094 12.722656 C 15.425781 13.121094 15.457031 13.59375 15.703125 13.960938 L 16.789062 15.585938 L 15.585938 16.789062 L 13.957031 15.703125 C 13.75 15.566406 13.507812 15.496094 13.265625 15.496094 C 13.078125 15.496094 12.894531 15.535156 12.722656 15.621094 C 12.503906 15.722656 12.28125 15.820312 12.046875 15.898438 C 11.632812 16.046875 11.320312 16.402344 11.234375 16.835938 L 10.851562 18.75 L 9.148438 18.75 L 8.765625 16.835938 C 8.679688 16.402344 8.371094 16.046875 7.953125 15.898438 C 7.722656 15.820312 7.496094 15.726562 7.28125 15.621094 C 7.109375 15.535156 6.921875 15.496094 6.734375 15.496094 C 6.492188 15.496094 6.25 15.566406 6.042969 15.703125 L 4.414062 16.789062 L 3.210938 15.585938 L 4.296875 13.960938 C 4.542969 13.589844 4.574219 13.121094 4.382812 12.722656 C 4.277344 12.503906 4.183594 12.28125 4.101562 12.050781 C 3.957031 11.632812 3.601562 11.324219 3.167969 11.234375 L 1.25 10.851562 L 1.25 9.152344 L 3.167969 8.765625 C 3.601562 8.679688 3.957031 8.371094 4.101562 7.953125 C 4.183594 7.722656 4.273438 7.496094 4.378906 7.28125 C 4.574219 6.882812 4.542969 6.410156 4.296875 6.042969 L 3.210938 4.414062 L 4.414062 3.210938 L 6.042969 4.296875 C 6.25 4.4375 6.492188 4.507812 6.734375 4.507812 C 6.921875 4.507812 7.105469 4.464844 7.277344 4.382812 C 7.496094 4.277344 7.71875 4.183594 7.949219 4.101562 C 8.367188 3.957031 8.679688 3.601562 8.765625 3.167969 L 9.148438 1.25 L 10.847656 1.25 L 11.234375 3.167969 C 11.320312 3.601562 11.628906 3.957031 12.046875 4.101562 C 12.277344 4.183594 12.503906 4.277344 12.71875 4.382812 C 12.890625 4.464844 13.078125 4.507812 13.265625 4.507812 C 13.507812 4.507812 13.75 4.4375 13.957031 4.296875 L 15.585938 3.210938 L 16.789062 4.414062 L 15.703125 6.042969 C 15.457031 6.410156 15.425781 6.882812 15.617188 7.28125 C 15.722656 7.496094 15.816406 7.71875 15.898438 7.953125 C 16.042969 8.371094 16.398438 8.679688 16.832031 8.765625 L 18.75 9.152344 L 18.75 10.851562 Z M 16.832031 11.234375 "/>
<path style=" stroke:none;fill-rule:nonzero;fill:rgb(20%,20%,20%);fill-opacity:1;" d="M 10 5.625 C 7.585938 5.625 5.625 7.585938 5.625 10 C 5.625 12.417969 7.585938 14.375 10 14.375 C 12.414062 14.375 14.375 12.417969 14.375 10 C 14.375 7.585938 12.414062 5.625 10 5.625 Z M 10 13.828125 C 7.886719 13.828125 6.171875 12.113281 6.171875 10 C 6.171875 7.886719 7.886719 6.171875 10 6.171875 C 12.113281 6.171875 13.828125 7.886719 13.828125 10 C 13.828125 12.113281 12.113281 13.828125 10 13.828125 Z M 10 13.828125 "/>
<path style=" stroke:none;fill-rule:nonzero;fill:rgb(20%,20%,20%);fill-opacity:1;" d="M 10 7.5 C 8.617188 7.5 7.5 8.621094 7.5 10 C 7.5 11.382812 8.617188 12.5 10 12.5 C 11.378906 12.5 12.5 11.382812 12.5 10 C 12.5 8.621094 11.378906 7.5 10 7.5 Z M 10 11.875 C 8.964844 11.875 8.125 11.035156 8.125 10 C 8.125 8.964844 8.964844 8.125 10 8.125 C 11.035156 8.125 11.875 8.964844 11.875 10 C 11.875 11.035156 11.035156 11.875 10 11.875 Z M 10 11.875 "/>
</g>
</svg>
