<?xml version="1.0" encoding="UTF-8"?>
<svg xmlns="http://www.w3.org/2000/svg" xmlns:xlink="http://www.w3.org/1999/xlink" width="24px" height="24px" viewBox="0 0 24 24" version="1.1">
<g id="surface1">
<path style=" stroke:none;fill-rule:nonzero;fill:rgb(0%,0%,0%);fill-opacity:1;" d="M 20.769531 1.152344 C 18.785156 0.855469 16.0625 0.714844 13.253906 0.769531 C 10.902344 0.816406 8.777344 1.011719 7.308594 1.300781 C 6.570312 0.242188 5.667969 0 5.007812 0 C 4.289062 0 3.515625 0.261719 2.644531 0.792969 C 2.160156 0.972656 1.46875 0.835938 1.136719 0.5 C 0.949219 0.308594 0.660156 0.25 0.410156 0.355469 C 0.164062 0.453125 0 0.699219 0 0.96875 C 0 3.472656 2.113281 5.667969 4.515625 5.667969 C 5 5.667969 6.5 5.667969 7.335938 4.3125 C 8.804688 4.601562 10.921875 4.796875 13.253906 4.835938 C 16.960938 4.898438 18.199219 4.886719 20.769531 4.457031 C 23.054688 4.066406 24 3.628906 24 2.800781 C 24 1.976562 23.066406 1.496094 20.769531 1.152344 Z M 6.332031 3.402344 C 5.839844 4.304688 4.84375 4.332031 4.515625 4.332031 C 3.234375 4.332031 2.046875 3.382812 1.558594 2.144531 C 2.726562 2.332031 3.269531 1.980469 3.300781 1.957031 C 3.964844 1.539062 4.539062 1.332031 5.007812 1.332031 C 5.351562 1.332031 5.855469 1.429688 6.332031 2.234375 Z M 13.28125 3.503906 C 11.058594 3.457031 9.050781 3.289062 7.664062 3.023438 L 7.664062 2.578125 C 9.050781 2.316406 11.054688 2.140625 13.28125 2.097656 C 13.675781 2.089844 19.449219 1.714844 22.199219 2.800781 C 19.554688 3.871094 13.675781 3.511719 13.28125 3.503906 Z M 13.28125 3.503906 "/>
<path style=" stroke:none;fill-rule:nonzero;fill:rgb(0%,0%,0%);fill-opacity:1;" d="M 21.59375 8.015625 C 20.792969 7.101562 19.601562 6.570312 18.332031 6.570312 C 16.621094 6.570312 15.121094 7.507812 14.519531 8.957031 C 13.847656 10.558594 12.25 11.398438 10.339844 11.125 C 9.246094 10.96875 8.371094 10.507812 7.8125 9.792969 C 7.011719 8.765625 5.765625 8.171875 4.394531 8.171875 C 0.667969 8.171875 0.207031 11.6875 0.128906 12.144531 C -0.285156 14.503906 0.316406 16.933594 1.808594 18.992188 C 3.683594 21.578125 6.832031 24 12.335938 24 C 18.175781 24 23.027344 20.472656 23.871094 15.609375 C 24.335938 12.925781 23.527344 10.234375 21.59375 8.015625 Z M 22.558594 15.378906 C 21.828125 19.601562 17.527344 22.667969 12.335938 22.667969 C 7.59375 22.667969 4.550781 20.503906 2.886719 18.207031 C 1.605469 16.445312 1.089844 14.371094 1.441406 12.375 C 1.507812 11.984375 1.832031 9.503906 4.394531 9.503906 C 5.347656 9.503906 6.210938 9.910156 6.765625 10.617188 C 7.539062 11.609375 8.710938 12.242188 10.152344 12.449219 C 12.675781 12.8125 14.835938 11.652344 15.746094 9.476562 C 16.148438 8.523438 17.160156 7.910156 18.332031 7.910156 C 19.21875 7.910156 20.046875 8.269531 20.59375 8.894531 C 22.257812 10.800781 22.953125 13.105469 22.558594 15.378906 Z M 22.558594 15.378906 "/>
<path style=" stroke:none;fill-rule:nonzero;fill:rgb(0%,0%,0%);fill-opacity:1;" d="M 18.855469 9.949219 C 17.726562 9.949219 16.804688 10.871094 16.804688 12 C 16.804688 13.128906 17.726562 14.050781 18.855469 14.050781 C 19.984375 14.050781 20.90625 13.128906 20.90625 12 C 20.90625 10.871094 19.984375 9.949219 18.855469 9.949219 Z M 18.855469 12.71875 C 18.457031 12.71875 18.136719 12.398438 18.136719 12 C 18.136719 11.601562 18.457031 11.28125 18.855469 11.28125 C 19.253906 11.28125 19.574219 11.601562 19.574219 12 C 19.574219 12.398438 19.253906 12.71875 18.855469 12.71875 Z M 18.855469 12.71875 "/>
<path style=" stroke:none;fill-rule:nonzero;fill:rgb(0%,0%,0%);fill-opacity:1;" d="M 16.089844 15.496094 C 14.960938 15.496094 14.039062 16.417969 14.039062 17.546875 C 14.039062 18.675781 14.960938 19.597656 16.089844 19.597656 C 17.21875 19.597656 18.140625 18.675781 18.140625 17.546875 C 18.136719 16.414062 17.21875 15.496094 16.089844 15.496094 Z M 16.089844 18.261719 C 15.695312 18.261719 15.375 17.9375 15.375 17.542969 C 15.375 17.144531 15.695312 16.824219 16.089844 16.824219 C 16.488281 16.824219 16.808594 17.144531 16.808594 17.542969 C 16.804688 17.9375 16.484375 18.261719 16.089844 18.261719 Z M 16.089844 18.261719 "/>
<path style=" stroke:none;fill-rule:nonzero;fill:rgb(0%,0%,0%);fill-opacity:1;" d="M 9.640625 16.152344 C 8.511719 16.152344 7.59375 17.074219 7.59375 18.203125 C 7.59375 19.332031 8.511719 20.253906 9.640625 20.253906 C 10.773438 20.253906 11.691406 19.332031 11.691406 18.203125 C 11.6875 17.070312 10.773438 16.152344 9.640625 16.152344 Z M 9.640625 18.917969 C 9.246094 18.917969 8.925781 18.59375 8.925781 18.199219 C 8.925781 17.800781 9.246094 17.480469 9.640625 17.480469 C 10.039062 17.480469 10.359375 17.800781 10.359375 18.199219 C 10.355469 18.59375 10.035156 18.917969 9.640625 18.917969 Z M 9.640625 18.917969 "/>
<path style=" stroke:none;fill-rule:nonzero;fill:rgb(0%,0%,0%);fill-opacity:1;" d="M 4.527344 12.46875 C 3.398438 12.46875 2.476562 13.390625 2.476562 14.519531 C 2.476562 15.648438 3.398438 16.570312 4.527344 16.570312 C 5.65625 16.570312 6.578125 15.648438 6.578125 14.519531 C 6.578125 13.390625 5.660156 12.46875 4.527344 12.46875 Z M 4.527344 15.234375 C 4.128906 15.234375 3.808594 14.914062 3.808594 14.519531 C 3.808594 14.121094 4.128906 13.800781 4.527344 13.800781 C 4.921875 13.800781 5.242188 14.121094 5.242188 14.519531 C 5.242188 14.914062 4.921875 15.234375 4.527344 15.234375 Z M 4.527344 15.234375 "/>
</g>
</svg>
