<?xml version="1.0" encoding="UTF-8"?>
<svg xmlns="http://www.w3.org/2000/svg" xmlns:xlink="http://www.w3.org/1999/xlink" width="24px" height="24px" viewBox="0 0 24 24" version="1.1">
<g id="surface1">
<path style=" stroke:none;fill-rule:nonzero;fill:rgb(0%,0%,0%);fill-opacity:1;" d="M 22.65625 10.660156 L 22.085938 10.660156 L 22.085938 7.226562 C 22.085938 5.824219 20.945312 4.6875 19.546875 4.6875 L 19.019531 4.6875 L 19.023438 3.414062 C 19.023438 2.46875 18.257812 1.699219 17.3125 1.699219 L 2.082031 1.699219 C 0.945312 1.699219 0.015625 2.617188 0 3.753906 C 0 3.761719 0 3.773438 0 3.78125 L 0 20.585938 C 0 21.53125 0.769531 22.300781 1.710938 22.300781 L 19.550781 22.300781 C 20.953125 22.300781 22.089844 21.15625 22.089844 19.757812 L 22.089844 16.324219 L 22.660156 16.324219 C 23.398438 16.324219 24 15.722656 24 14.984375 L 24 11.996094 C 23.996094 11.257812 23.394531 10.660156 22.65625 10.660156 Z M 2.082031 2.882812 L 17.3125 2.882812 C 17.601562 2.882812 17.84375 3.117188 17.84375 3.410156 L 17.835938 4.6875 L 2.082031 4.6875 C 1.585938 4.6875 1.179688 4.285156 1.179688 3.789062 C 1.179688 3.289062 1.585938 2.882812 2.082031 2.882812 Z M 20.902344 19.753906 C 20.902344 20.503906 20.292969 21.113281 19.546875 21.113281 L 1.707031 21.113281 C 1.417969 21.113281 1.175781 20.875 1.175781 20.582031 L 1.175781 5.664062 C 1.453125 5.796875 1.757812 5.871094 2.082031 5.871094 L 19.546875 5.871094 C 20.292969 5.871094 20.902344 6.480469 20.902344 7.226562 L 20.902344 10.660156 L 16.871094 10.660156 C 16.132812 10.660156 15.535156 11.257812 15.535156 11.996094 L 15.535156 14.984375 C 15.535156 15.722656 16.132812 16.324219 16.871094 16.324219 L 20.902344 16.324219 Z M 22.8125 14.984375 C 22.8125 15.074219 22.746094 15.144531 22.65625 15.144531 L 16.878906 15.144531 C 16.789062 15.144531 16.71875 15.074219 16.71875 14.984375 L 16.71875 11.996094 C 16.71875 11.914062 16.789062 11.839844 16.878906 11.839844 L 22.65625 11.839844 C 22.738281 11.839844 22.8125 11.910156 22.8125 11.996094 Z M 22.8125 14.984375 "/>
</g>
</svg>
